# xmcd
# 
# Track frame offsets:
#     150
#     24153
#     42287
#     54418
#     77637
#     98074
#     119448
#     139416
# 
# Disc length: 2107
# 
# Revision: 0
# Processed by: cddbd v1.5.2PL0 Copyright (c) Steve Scherf et al.
# Submitted via: fre:ac v1.0.17
# 
DISCID=60083908
DTITLE=LEVELLERS - Levelling The Land Live CD2
DYEAR=2011
DGENRE=Rock
TTITLE0=Hard Fight
TTITLE1=Dance Before The Storm
TTITLE2=Last Days Of Winter
TTITLE3=The Devil Went Down To Georgia
TTITLE4=Hope Street
TTITLE5=Carry Me
TTITLE6=The Cholera Well
TTITLE7=What A Beautiful Day
EXTD=
EXTT0=
EXTT1=
EXTT2=
EXTT3=
EXTT4=
EXTT5=
EXTT6=
EXTT7=
PLAYORDER=
